<svg width="32" height="32" viewBox="0 0 32 32" fill="none" xmlns="http://www.w3.org/2000/svg">
<mask id="mask0_1361_100" style="mask-type:luminance" maskUnits="userSpaceOnUse" x="4" y="4" width="24" height="24">
<path d="M4 4H28V28H4V4Z" fill="white"/>
</mask>
<g mask="url(#mask0_1361_100)">
<path d="M16 16.75C16 15.7554 16.3951 14.8016 17.0983 14.0983C17.8016 13.3951 18.7554 13 19.75 13C20.7446 13 21.6984 13.3951 22.4017 14.0983C23.1049 14.8016 23.5 15.7554 23.5 16.75C23.5 17.7446 23.1049 18.6984 22.4017 19.4017C21.6984 20.1049 20.7446 20.5 19.75 20.5C18.7554 20.5 17.8016 20.1049 17.0983 19.4017C16.3951 18.6984 16 17.7446 16 16.75V16.75Z" fill="#1ABCFE"/>
<path d="M8.5 24.25C8.5 23.2554 8.89509 22.3016 9.59835 21.5983C10.3016 20.8951 11.2554 20.5 12.25 20.5H16V24.25C16 25.2446 15.6049 26.1984 14.9017 26.9017C14.1984 27.6049 13.2446 28 12.25 28C11.2554 28 10.3016 27.6049 9.59835 26.9017C8.89509 26.1984 8.5 25.2446 8.5 24.25V24.25Z" fill="#0ACF83"/>
<path d="M16 5.5V13H19.75C20.7446 13 21.6984 12.6049 22.4017 11.9017C23.1049 11.1984 23.5 10.2446 23.5 9.25C23.5 8.25544 23.1049 7.30161 22.4017 6.59835C21.6984 5.89509 20.7446 5.5 19.75 5.5H16Z" fill="#FF7262"/>
<path d="M8.5 9.25C8.5 10.2446 8.89509 11.1984 9.59835 11.9017C10.3016 12.6049 11.2554 13 12.25 13H16V5.5H12.25C11.2554 5.5 10.3016 5.89509 9.59835 6.59835C8.89509 7.30161 8.5 8.25544 8.5 9.25V9.25Z" fill="#F24E1E"/>
<path d="M8.5 16.75C8.5 17.7446 8.89509 18.6984 9.59835 19.4017C10.3016 20.1049 11.2554 20.5 12.25 20.5H16V13H12.25C11.2554 13 10.3016 13.3951 9.59835 14.0983C8.89509 14.8016 8.5 15.7554 8.5 16.75V16.75Z" fill="#A259FF"/>
</g>
</svg>
