<svg width="32" height="32" viewBox="0 0 32 32" fill="none" xmlns="http://www.w3.org/2000/svg">
<path fill-rule="evenodd" clip-rule="evenodd" d="M17.7213 26V21.4509H14.2787V26H10.2623C9.95799 26 9.66611 25.8802 9.45091 25.6669C9.23571 25.4536 9.11481 25.1643 9.11481 24.8627V18.039H6.14729C5.92036 18.039 5.69855 17.9723 5.50988 17.8473C5.32122 17.7223 5.17417 17.5447 5.08734 17.3369C5.0005 17.1291 4.97778 16.9005 5.02204 16.6799C5.06629 16.4594 5.17555 16.2567 5.33598 16.0977L15.1887 6.33298C15.4039 6.11977 15.6957 6 16 6C16.3043 6 16.5961 6.11977 16.8113 6.33298L26.664 16.0977C26.8245 16.2567 26.9337 16.4594 26.978 16.6799C27.0222 16.9005 26.9995 17.1291 26.9127 17.3369C26.8258 17.5447 26.6788 17.7223 26.4901 17.8473C26.3015 17.9723 26.0796 18.039 25.8527 18.039H22.8852V24.8627C22.8852 25.1643 22.7643 25.4536 22.5491 25.6669C22.3339 25.8802 22.042 26 21.7377 26H17.7213Z" fill="white"/>
</svg>
